<svg width="29" height="28" viewBox="0 0 29 28" fill="none" xmlns="http://www.w3.org/2000/svg">
<g clip-path="url(#clip0_4_174)" filter="url(#filter0_d_4_174)">
<g clip-path="url(#clip1_4_174)">
<path d="M20.9118 13.4559C20.9719 13.8435 20.845 14.0076 20.7167 14.0076C20.5885 14.0076 20.4028 13.85 20.1957 13.5373C19.9887 13.2245 19.9179 12.8769 20.0181 12.6986C20.0558 12.6368 20.1167 12.5915 20.1881 12.572C20.2595 12.5525 20.3359 12.5604 20.4015 12.5939C20.7421 12.718 20.8757 13.2233 20.9118 13.4559ZM19.0241 14.3061C19.4343 14.6408 19.5585 15.0389 19.3421 15.3193C19.2762 15.3977 19.1922 15.46 19.0968 15.5013C19.0014 15.5426 18.8974 15.5617 18.793 15.557C18.5642 15.5574 18.3425 15.4801 18.1665 15.3386C17.7951 15.0246 17.6856 14.5142 17.9287 14.2247C17.9824 14.1653 18.0494 14.1186 18.1247 14.0881C18.2 14.0577 18.2814 14.0443 18.3629 14.049C18.6077 14.0569 18.8418 14.1479 19.0241 14.3061V14.3061ZM18.3402 17.5367C20.1022 17.5367 22.0139 18.1208 24.1313 19.9351C24.3424 20.1161 24.6243 19.8912 24.4399 19.6651C22.3599 17.1258 20.4322 16.6412 18.5178 16.2329C16.172 15.7315 14.9643 14.4535 14.1187 13.0514C13.9517 12.7723 13.8755 12.8214 13.8608 13.1806C13.8468 13.7131 13.8884 14.2456 13.9851 14.7701V14.7701C13.8902 14.7701 13.794 14.7701 13.6992 14.7701C12.497 14.7701 11.3218 14.4252 10.3222 13.7792C9.3226 13.1331 8.54352 12.2148 8.08346 11.1404C7.6234 10.0661 7.50302 8.88385 7.73756 7.7433C7.9721 6.60275 8.55101 5.55509 9.40109 4.7328C10.2512 3.91051 11.3342 3.35053 12.5133 3.12366C13.6924 2.89679 14.9146 3.01322 16.0253 3.45824C17.136 3.90326 18.0853 4.65688 18.7532 5.62379C19.4211 6.5907 19.7776 7.72748 19.7776 8.89037C19.7782 9.11877 19.7653 9.347 19.7389 9.57397C19.0985 9.49597 18.4514 9.48427 17.8085 9.53908C17.5773 9.55846 17.6107 9.6683 17.7844 9.69285C19.7883 10.0431 21.175 11.2435 21.4902 13.4339C21.4914 13.445 21.4961 13.4555 21.5037 13.4638C21.5114 13.4722 21.5215 13.478 21.5328 13.4804C21.544 13.4828 21.5558 13.4818 21.5664 13.4774C21.577 13.473 21.5859 13.4654 21.5918 13.4559C22.6342 11.7703 23.0706 9.79838 22.8329 7.84774C22.5952 5.89709 21.6968 4.07738 20.2778 2.67245C18.8588 1.26752 16.999 0.356356 14.9885 0.0810911C12.978 -0.194174 10.9298 0.181935 9.1635 1.15075C7.39717 2.11957 6.01197 3.62662 5.22396 5.43683C4.43596 7.24704 4.28946 9.25863 4.80732 11.1578C5.32518 13.057 6.47828 14.737 8.08676 15.9358C9.69524 17.1346 11.6686 17.7848 13.6992 17.7849C15.0418 17.7887 16.379 17.5355 18.3402 17.5355V17.5367Z" fill="#07C8C8"/>
</g>
</g>
<defs>
<filter id="filter0_d_4_174" x="0.499939" y="0" width="28" height="28" filterUnits="userSpaceOnUse" color-interpolation-filters="sRGB">
<feFlood flood-opacity="0" result="BackgroundImageFix"/>
<feColorMatrix in="SourceAlpha" type="matrix" values="0 0 0 0 0 0 0 0 0 0 0 0 0 0 0 0 0 0 127 0" result="hardAlpha"/>
<feOffset dy="4"/>
<feGaussianBlur stdDeviation="2"/>
<feComposite in2="hardAlpha" operator="out"/>
<feColorMatrix type="matrix" values="0 0 0 0 0 0 0 0 0 0 0 0 0 0 0 0 0 0 0.25 0"/>
<feBlend mode="normal" in2="BackgroundImageFix" result="effect1_dropShadow_4_174"/>
<feBlend mode="normal" in="SourceGraphic" in2="effect1_dropShadow_4_174" result="shape"/>
</filter>
<clipPath id="clip0_4_174">
<rect width="20" height="20" fill="white" transform="translate(4.49994)"/>
</clipPath>
<clipPath id="clip1_4_174">
<rect width="20" height="20" fill="white" transform="translate(4.49994)"/>
</clipPath>
</defs>
</svg>
